<mxfile host="app.diagrams.net" agent="Mozilla/5.0 (Windows NT 10.0; Win64; x64) AppleWebKit/537.36 (KHTML, like Gecko) Chrome/133.0.0.0 Safari/537.36" version="24.8.4">
  <diagram name="Trang-1" id="B35fkZXc4F9IcR4rHK0y">
    <mxGraphModel dx="1037" dy="506" grid="0" gridSize="10" guides="1" tooltips="1" connect="1" arrows="1" fold="1" page="0" pageScale="1" pageWidth="827" pageHeight="1169" math="0" shadow="0">
      <root>
        <mxCell id="0" />
        <mxCell id="1" parent="0" />
        <mxCell id="ykoIBKQA-kHP_J5XGkoh-3" value="" style="edgeStyle=none;curved=1;rounded=0;orthogonalLoop=1;jettySize=auto;html=1;fontSize=12;startSize=8;endSize=8;" edge="1" parent="1" source="ykoIBKQA-kHP_J5XGkoh-1" target="ykoIBKQA-kHP_J5XGkoh-2">
          <mxGeometry relative="1" as="geometry" />
        </mxCell>
        <mxCell id="ykoIBKQA-kHP_J5XGkoh-4" value="" style="edgeStyle=none;curved=1;rounded=0;orthogonalLoop=1;jettySize=auto;html=1;fontSize=12;startSize=8;endSize=8;" edge="1" parent="1" source="ykoIBKQA-kHP_J5XGkoh-1" target="ykoIBKQA-kHP_J5XGkoh-2">
          <mxGeometry relative="1" as="geometry" />
        </mxCell>
        <mxCell id="ykoIBKQA-kHP_J5XGkoh-5" value="" style="edgeStyle=none;curved=1;rounded=0;orthogonalLoop=1;jettySize=auto;html=1;fontSize=12;startSize=8;endSize=8;" edge="1" parent="1" source="ykoIBKQA-kHP_J5XGkoh-1" target="ykoIBKQA-kHP_J5XGkoh-2">
          <mxGeometry relative="1" as="geometry" />
        </mxCell>
        <mxCell id="ykoIBKQA-kHP_J5XGkoh-6" value="" style="edgeStyle=none;curved=1;rounded=0;orthogonalLoop=1;jettySize=auto;html=1;fontSize=12;startSize=8;endSize=8;" edge="1" parent="1" source="ykoIBKQA-kHP_J5XGkoh-1" target="ykoIBKQA-kHP_J5XGkoh-2">
          <mxGeometry relative="1" as="geometry" />
        </mxCell>
        <mxCell id="ykoIBKQA-kHP_J5XGkoh-8" value="" style="edgeStyle=none;curved=1;rounded=0;orthogonalLoop=1;jettySize=auto;html=1;fontSize=12;startSize=8;endSize=8;fontStyle=1" edge="1" parent="1" source="ykoIBKQA-kHP_J5XGkoh-1" target="ykoIBKQA-kHP_J5XGkoh-7">
          <mxGeometry relative="1" as="geometry" />
        </mxCell>
        <mxCell id="ykoIBKQA-kHP_J5XGkoh-10" value="" style="edgeStyle=none;curved=1;rounded=0;orthogonalLoop=1;jettySize=auto;html=1;fontSize=12;startSize=8;endSize=8;" edge="1" parent="1" source="ykoIBKQA-kHP_J5XGkoh-1" target="ykoIBKQA-kHP_J5XGkoh-9">
          <mxGeometry relative="1" as="geometry" />
        </mxCell>
        <mxCell id="ykoIBKQA-kHP_J5XGkoh-1" value="Main Menu&lt;div&gt;Scene&lt;/div&gt;" style="rounded=1;whiteSpace=wrap;html=1;" vertex="1" parent="1">
          <mxGeometry x="102" y="103" width="120" height="60" as="geometry" />
        </mxCell>
        <mxCell id="ykoIBKQA-kHP_J5XGkoh-2" value="Options&lt;br&gt;&lt;div&gt;Scene&lt;/div&gt;" style="rounded=1;whiteSpace=wrap;html=1;" vertex="1" parent="1">
          <mxGeometry x="-120" y="33" width="120" height="60" as="geometry" />
        </mxCell>
        <mxCell id="ykoIBKQA-kHP_J5XGkoh-7" value="Leaderboards&lt;div&gt;Scene&lt;/div&gt;" style="whiteSpace=wrap;html=1;rounded=1;" vertex="1" parent="1">
          <mxGeometry x="-77" y="134" width="120" height="60" as="geometry" />
        </mxCell>
        <mxCell id="ykoIBKQA-kHP_J5XGkoh-12" value="" style="edgeStyle=none;curved=1;rounded=0;orthogonalLoop=1;jettySize=auto;html=1;fontSize=12;startSize=8;endSize=8;" edge="1" parent="1" source="ykoIBKQA-kHP_J5XGkoh-9" target="ykoIBKQA-kHP_J5XGkoh-11">
          <mxGeometry relative="1" as="geometry" />
        </mxCell>
        <mxCell id="ykoIBKQA-kHP_J5XGkoh-9" value="Game&lt;div&gt;Scene&lt;/div&gt;" style="rounded=1;whiteSpace=wrap;html=1;" vertex="1" parent="1">
          <mxGeometry x="102" y="179" width="120" height="60" as="geometry" />
        </mxCell>
        <mxCell id="ykoIBKQA-kHP_J5XGkoh-15" style="edgeStyle=none;curved=1;rounded=0;orthogonalLoop=1;jettySize=auto;html=1;exitX=1;exitY=0.75;exitDx=0;exitDy=0;entryX=1;entryY=0.5;entryDx=0;entryDy=0;fontSize=12;startSize=8;endSize=8;" edge="1" parent="1" source="ykoIBKQA-kHP_J5XGkoh-11" target="ykoIBKQA-kHP_J5XGkoh-1">
          <mxGeometry relative="1" as="geometry">
            <Array as="points">
              <mxPoint x="288" y="212" />
            </Array>
          </mxGeometry>
        </mxCell>
        <mxCell id="ykoIBKQA-kHP_J5XGkoh-18" style="edgeStyle=none;curved=1;rounded=0;orthogonalLoop=1;jettySize=auto;html=1;exitX=0;exitY=0.5;exitDx=0;exitDy=0;fontSize=12;startSize=8;endSize=8;" edge="1" parent="1" source="ykoIBKQA-kHP_J5XGkoh-11" target="ykoIBKQA-kHP_J5XGkoh-17">
          <mxGeometry relative="1" as="geometry" />
        </mxCell>
        <mxCell id="ykoIBKQA-kHP_J5XGkoh-20" value="Set Data" style="edgeLabel;html=1;align=center;verticalAlign=middle;resizable=0;points=[];fontSize=12;rotation=0;" vertex="1" connectable="0" parent="ykoIBKQA-kHP_J5XGkoh-18">
          <mxGeometry x="0.2022" y="-1" relative="1" as="geometry">
            <mxPoint x="22" y="12" as="offset" />
          </mxGeometry>
        </mxCell>
        <mxCell id="ykoIBKQA-kHP_J5XGkoh-11" value="Game Over&lt;div&gt;Scene&lt;/div&gt;" style="rounded=1;whiteSpace=wrap;html=1;" vertex="1" parent="1">
          <mxGeometry x="93" y="276" width="138" height="60" as="geometry" />
        </mxCell>
        <mxCell id="ykoIBKQA-kHP_J5XGkoh-16" style="edgeStyle=none;curved=1;rounded=0;orthogonalLoop=1;jettySize=auto;html=1;exitX=1;exitY=0.25;exitDx=0;exitDy=0;entryX=0.993;entryY=0.377;entryDx=0;entryDy=0;entryPerimeter=0;fontSize=12;startSize=8;endSize=8;" edge="1" parent="1" source="ykoIBKQA-kHP_J5XGkoh-11" target="ykoIBKQA-kHP_J5XGkoh-9">
          <mxGeometry relative="1" as="geometry">
            <Array as="points">
              <mxPoint x="253" y="234" />
            </Array>
          </mxGeometry>
        </mxCell>
        <mxCell id="ykoIBKQA-kHP_J5XGkoh-19" style="edgeStyle=none;curved=1;rounded=0;orthogonalLoop=1;jettySize=auto;html=1;exitX=0.875;exitY=0.5;exitDx=0;exitDy=0;exitPerimeter=0;entryX=0;entryY=0.5;entryDx=0;entryDy=0;fontSize=12;startSize=8;endSize=8;" edge="1" parent="1" source="ykoIBKQA-kHP_J5XGkoh-17" target="ykoIBKQA-kHP_J5XGkoh-7">
          <mxGeometry relative="1" as="geometry" />
        </mxCell>
        <mxCell id="ykoIBKQA-kHP_J5XGkoh-17" value="FIRESTORE&lt;div&gt;DATA BASE&lt;/div&gt;" style="ellipse;shape=cloud;whiteSpace=wrap;html=1;" vertex="1" parent="1">
          <mxGeometry x="-318" y="124" width="120" height="80" as="geometry" />
        </mxCell>
        <mxCell id="ykoIBKQA-kHP_J5XGkoh-21" value="Get Data" style="text;html=1;align=center;verticalAlign=middle;resizable=0;points=[];autosize=1;strokeColor=none;fillColor=none;fontSize=16;" vertex="1" parent="1">
          <mxGeometry x="-202" y="132" width="82" height="31" as="geometry" />
        </mxCell>
      </root>
    </mxGraphModel>
  </diagram>
</mxfile>
